<?xml version="1.0" encoding="UTF-8"?>
<svg xmlns="http://www.w3.org/2000/svg" width="44" height="40" viewBox="0 0 44 40" fill="none">
  <g id="Logo Cupula">
    <path id="Vector" d="M31.4039 32.8324L32.6793 26.2047L29.1975 18.0168L25.3034 13.9483C25.3034 13.9483 25.0483 13.7528 25.0738 13.7613C31.3189 16.4736 35.991 23.841 36.769 32.7643V32.8154L31.4039 32.8324ZM29.4144 32.8324L22.5571 32.8069V14.1014L22.6421 14.1737C26.6681 17.6342 29.4144 24.5552 29.4144 32.522V32.8154M36.752 32.7856H31.4167C31.4167 32.7856 31.4167 32.1522 31.3912 31.7993C31.3907 30.7027 31.3283 29.6069 31.2041 28.5174C30.7945 24.1193 29.3446 19.8819 26.9741 16.1547C26.4269 15.3038 25.7913 14.5129 25.0781 13.7953L25.0526 13.7613C25.0526 13.7613 25.5755 14.0759 25.8688 14.2629C26.2939 14.535 26.7191 14.8113 27.1187 15.1132C28.2973 15.9655 29.401 16.917 30.4177 17.9573C30.4857 18.0253 30.711 18.2548 30.9576 18.5312C31.2041 18.8075 31.4762 19.1221 31.676 19.3814C32.5475 20.4242 33.3203 21.5457 33.9845 22.7314C34.3612 23.4192 34.6962 24.129 34.9877 24.857C35.9631 27.3398 36.5496 29.9582 36.7265 32.6198V32.8621M39.392 31.9396L36.752 21.252L31.2169 15.3045C31.2169 15.3045 29.5759 14.1396 28.6406 13.502C28.2835 13.2596 27.9859 13.1023 27.9859 13.1023H28.0157C31.9753 14.7008 35.3873 17.4119 37.8392 20.9079C40.291 24.404 41.6779 28.5353 41.8322 32.8026L39.392 31.9396ZM38.7628 32.8664C38.7628 32.8664 38.5673 30.7025 38.1804 28.7724C37.9494 27.6648 37.6441 26.574 37.2664 25.5075C36.9141 24.4418 36.4879 23.402 35.991 22.3956C34.9769 20.2178 33.6317 18.2101 32.0034 16.4438C31.3811 15.7716 30.7165 15.1397 30.0138 14.552C29.5079 14.1269 29.0615 13.8038 28.7384 13.5785C28.9297 13.6933 29.1635 13.8378 29.4781 14.0036C30.0393 14.3309 30.711 14.7263 31.4294 15.211C31.7483 15.4235 32.0459 15.6573 32.3817 15.9082C32.454 15.9634 33.47 16.7584 34.4648 17.6894C35.2317 18.4275 35.9502 19.2142 36.616 20.0446C37.6549 21.344 38.5567 22.7473 39.307 24.2321C40.1647 25.9385 40.8114 27.743 41.2328 29.6057C41.5134 30.847 41.726 32.8451 41.726 32.8451L38.7628 32.8664ZM36.7393 32.8664H31.4039C31.4039 32.8664 31.4039 32.2329 31.3784 31.8801C31.378 30.7834 31.3155 29.6877 31.1914 28.5981C30.7981 24.1733 29.3522 19.9068 26.9741 16.1547C26.4269 15.3038 25.7913 14.5129 25.0781 13.7953L25.0526 13.7613C25.0526 13.7613 25.5755 14.0759 25.8688 14.2629C26.2939 14.535 26.7191 14.8113 27.1187 15.1132C28.2973 15.9655 29.401 16.917 30.4177 17.9573C30.4857 18.0253 30.711 18.2548 30.9576 18.5312C31.2041 18.8075 31.4762 19.1221 31.676 19.3814C32.5475 20.4242 33.3203 21.5457 33.9845 22.7314C34.3612 23.4192 34.6962 24.129 34.9877 24.857C35.9631 27.3398 36.5496 29.9582 36.7265 32.6198V32.8621M17.7277 13.9993L13.8335 18.0678L10.3518 26.2599L11.6272 32.8919L6.24933 32.8706V32.8196C7.03156 23.892 11.7037 16.5288 17.9488 13.8123L17.7192 13.9993M13.6125 32.9004V32.5645C13.6125 24.5935 16.3545 17.6852 20.3805 14.2077L20.4655 14.1354V32.8409L13.6125 32.9004ZM17.9317 13.8421C17.2248 14.5449 16.5935 15.32 16.0484 16.1547C13.6804 19.9025 12.2404 24.161 11.8482 28.5769C11.7241 29.665 11.6617 30.7594 11.6612 31.8546C11.6612 32.2117 11.6357 32.8451 11.6357 32.8451H6.29609C6.29609 32.8451 6.29609 32.6241 6.29609 32.5985C6.46716 29.9318 7.04937 27.3076 8.0221 24.8188C8.31461 24.0912 8.64962 23.3814 9.02539 22.6931C9.69048 21.5094 10.4632 20.3894 11.3338 19.3474C11.5336 19.1093 11.8015 18.7905 12.0523 18.4972C12.3031 18.2038 12.5242 17.9913 12.5879 17.9232C13.6083 16.8854 14.7132 15.9341 15.8911 15.0792C16.2908 14.7943 16.7159 14.518 17.141 14.2289C17.4344 14.0419 17.953 13.7273 17.953 13.7273L17.9317 13.8421ZM14.399 13.4849C13.4637 14.1269 11.8227 15.2875 11.8227 15.2875L6.29609 21.2095L3.47751 32.8366H1.2116C1.36903 28.569 2.75705 24.438 5.20844 20.9412C7.65982 17.4444 11.07 14.731 15.0281 13.1278H15.0579C14.8344 13.2483 14.6173 13.3803 14.4075 13.5232M11.0447 16.4481C9.41722 18.2159 8.07089 20.2232 7.05281 22.3998C6.55719 23.4068 6.13107 24.4465 5.77744 25.5117C5.39855 26.5793 5.09317 27.6716 4.86342 28.7809C4.47656 30.7152 4.281 32.8791 4.281 32.8791H1.30513C1.30513 32.8791 1.51769 30.8853 1.79827 29.6397C2.21437 27.7657 2.85826 25.9497 3.71558 24.2321C4.4662 22.7412 5.36947 21.3321 6.41088 20.0276C7.07637 19.1956 7.79491 18.4075 8.56201 17.6682C9.5568 16.7244 10.5728 15.9422 10.6451 15.8869C10.9767 15.6361 11.2743 15.4065 11.5974 15.1897C12.3159 14.7051 12.9876 14.3097 13.5487 13.9866L14.2842 13.5615C13.9611 13.7868 13.5147 14.1184 13.0088 14.535C12.3083 15.1251 11.6452 15.7584 11.0235 16.4311M17.9445 13.7995C17.2307 14.5151 16.5951 15.3046 16.0484 16.1547C13.6804 19.9025 12.2404 24.161 11.8482 28.5769C11.7241 29.665 11.6617 30.7594 11.6612 31.8546C11.6612 32.2117 11.6357 32.8451 11.6357 32.8451H6.29609C6.29609 32.8451 6.29609 32.6241 6.29609 32.5985C6.46716 29.9318 7.04937 27.3076 8.0221 24.8188C8.31461 24.0912 8.64962 23.3814 9.02539 22.6931C9.69048 21.5094 10.4632 20.3894 11.3338 19.3474C11.5336 19.1093 11.8015 18.7905 12.0523 18.4972C12.3031 18.2038 12.5242 17.9913 12.5879 17.9232C13.6083 16.8854 14.7132 15.9341 15.8911 15.0792C16.2908 14.7943 16.7159 14.518 17.141 14.2289C17.4344 14.0419 17.953 13.7273 17.953 13.7273L17.9445 13.7995ZM25.4947 6.41513H17.4896C17.472 6.4157 17.4544 6.41271 17.4379 6.40634C17.4214 6.39998 17.4064 6.39036 17.3937 6.37806C17.381 6.36577 17.3709 6.35105 17.364 6.33477C17.3571 6.3185 17.3536 6.30101 17.3536 6.28334V5.97725C17.3536 5.94117 17.3679 5.90657 17.3934 5.88106C17.4189 5.85554 17.4535 5.84121 17.4896 5.84121H25.4947C25.5124 5.8412 25.5299 5.84475 25.5462 5.85163C25.5624 5.85852 25.5771 5.86861 25.5894 5.8813C25.6017 5.89399 25.6114 5.90903 25.6177 5.92551C25.6241 5.94199 25.6271 5.95959 25.6265 5.97725V6.28334C25.6265 6.31829 25.6126 6.35181 25.5879 6.37653C25.5632 6.40124 25.5297 6.41513 25.4947 6.41513ZM25.4947 12.4604H17.4896C17.4581 12.4554 17.4293 12.4395 17.4083 12.4154C17.3873 12.3913 17.3754 12.3606 17.3748 12.3286V12.0225C17.3748 12.0049 17.3784 11.9874 17.3853 11.9711C17.3921 11.9548 17.4022 11.9401 17.4149 11.9278C17.4276 11.9155 17.4426 11.9059 17.4591 11.8995C17.4756 11.8931 17.4932 11.8902 17.5109 11.8907H25.4947C25.5297 11.8907 25.5632 11.9046 25.5879 11.9293C25.6126 11.954 25.6265 11.9876 25.6265 12.0225V12.3286C25.6271 12.3463 25.6241 12.3639 25.6177 12.3804C25.6114 12.3968 25.6017 12.4119 25.5894 12.4246C25.5771 12.4373 25.5624 12.4473 25.5462 12.4542C25.5299 12.4611 25.5124 12.4647 25.4947 12.4647M42.8866 34.9963H0.131788C0.096835 34.9963 0.0633121 34.9824 0.038597 34.9576C0.0138818 34.9329 0 34.8994 0 34.8645V34.4776C0 34.4426 0.0138818 34.4091 0.038597 34.3844C0.0633121 34.3597 0.096835 34.3458 0.131788 34.3458H42.8823C42.9 34.3452 42.9176 34.3482 42.934 34.3546C42.9505 34.361 42.9656 34.3706 42.9783 34.3829C42.9909 34.3952 43.001 34.4099 43.0079 34.4262C43.0148 34.4424 43.0184 34.4599 43.0183 34.4776V34.8602C43.0184 34.8779 43.0148 34.8954 43.0079 34.9116C43.001 34.9279 42.9909 34.9426 42.9783 34.9549C42.9656 34.9672 42.9505 34.9768 42.934 34.9832C42.9176 34.9896 42.9 34.9926 42.8823 34.992M20.7461 1.63248H20.6228C20.6156 1.63255 20.6086 1.63001 20.6031 1.62532C20.5976 1.62062 20.5941 1.61411 20.593 1.60697V1.29663C20.593 1.28874 20.5962 1.28117 20.6017 1.27559C20.6073 1.27001 20.6149 1.26687 20.6228 1.26687H20.7461C20.754 1.26687 20.7615 1.27001 20.7671 1.27559C20.7727 1.28117 20.7758 1.28874 20.7758 1.29663V1.60697C20.7748 1.61411 20.7712 1.62062 20.7657 1.62532C20.7603 1.63001 20.7533 1.63255 20.7461 1.63248ZM22.3658 1.63248H22.2425C22.2353 1.63255 22.2283 1.63001 22.2228 1.62532C22.2174 1.62062 22.2138 1.61411 22.2128 1.60697V1.29663C22.2128 1.28874 22.2159 1.28117 22.2215 1.27559C22.227 1.27001 22.2346 1.26687 22.2425 1.26687H22.3658C22.3737 1.26687 22.3813 1.27001 22.3868 1.27559C22.3924 1.28117 22.3956 1.28874 22.3956 1.29663V1.60697C22.3945 1.61411 22.3909 1.62062 22.3855 1.62532C22.38 1.63001 22.373 1.63255 22.3658 1.63248ZM20.593 1.59847H22.3913V1.7005H20.593V1.59847ZM21.5708 0.425124H21.422C21.4126 0.424074 21.404 0.419584 21.3977 0.412519C21.3914 0.405455 21.388 0.396315 21.388 0.386863V0.03401C21.3889 0.0253061 21.3928 0.017182 21.399 0.0109928C21.4052 0.00480366 21.4133 0.000923659 21.422 0L21.5708 0C21.5795 0.000923659 21.5876 0.00480366 21.5938 0.0109928C21.6 0.017182 21.6039 0.0253061 21.6048 0.03401V0.365607C21.6049 0.375059 21.6014 0.384198 21.5952 0.391263C21.5889 0.398328 21.5802 0.402818 21.5708 0.403868M21.4433 0.403868H21.5538V2.49123H21.4433V0.403868ZM18.4036 5.4501C18.3882 5.03373 18.4569 4.61854 18.6056 4.22932C18.7543 3.84011 18.9799 3.48487 19.269 3.18485C19.5581 2.88483 19.9048 2.64619 20.2882 2.48319C20.6717 2.32019 21.084 2.23617 21.5007 2.23617C21.9173 2.23617 22.3297 2.32019 22.7131 2.48319C23.0966 2.64619 23.4432 2.88483 23.7323 3.18485C24.0214 3.48487 24.2471 3.84011 24.3958 4.22932C24.5444 4.61854 24.6131 5.03373 24.5977 5.4501V5.47986L18.4036 5.4501ZM25.3842 6.37687H17.6044C17.5728 6.37687 17.5415 6.37058 17.5123 6.35835C17.4831 6.34612 17.4567 6.3282 17.4345 6.30564C17.4124 6.28308 17.3949 6.25633 17.3832 6.22696C17.3715 6.19758 17.3658 6.16617 17.3663 6.13455V6.07078C17.3663 6.00724 17.3913 5.94624 17.4358 5.90092C17.4803 5.85559 17.5409 5.82957 17.6044 5.82846H25.3842C25.4477 5.82957 25.5083 5.85559 25.5528 5.90092C25.5973 5.94624 25.6223 6.00724 25.6222 6.07078V6.13455C25.6228 6.16617 25.6171 6.19758 25.6054 6.22696C25.5937 6.25633 25.5762 6.28308 25.554 6.30564C25.5319 6.3282 25.5054 6.34612 25.4763 6.35835C25.4471 6.37058 25.4158 6.37687 25.3842 6.37687ZM25.3842 12.4391H17.6044C17.5413 12.4391 17.4807 12.4141 17.4361 12.3694C17.3914 12.3248 17.3663 12.2642 17.3663 12.2011V12.1373C17.3663 12.0738 17.3913 12.0128 17.4358 11.9674C17.4803 11.9221 17.5409 11.8961 17.6044 11.895H25.3842C25.4477 11.8961 25.5083 11.9221 25.5528 11.9674C25.5973 12.0128 25.6223 12.0738 25.6222 12.1373V12.2011C25.6222 12.2642 25.5972 12.3248 25.5525 12.3694C25.5079 12.4141 25.4473 12.4391 25.3842 12.4391ZM21.8897 11.3848H21.1117C21.0474 11.3848 20.9858 11.3593 20.9403 11.3139C20.8949 11.2684 20.8694 11.2068 20.8694 11.1425V6.99755C20.8688 6.96557 20.8747 6.9338 20.8866 6.90414C20.8986 6.87448 20.9164 6.84754 20.939 6.82492C20.9617 6.8023 20.9886 6.78447 21.0183 6.7725C21.0479 6.76053 21.0797 6.75465 21.1117 6.75523H21.8897C21.9213 6.75522 21.9526 6.76152 21.9818 6.77375C22.0109 6.78598 22.0374 6.80389 22.0595 6.82645C22.0817 6.84901 22.0991 6.87576 22.1108 6.90514C22.1225 6.93451 22.1283 6.96593 22.1277 6.99755V11.1553C22.1277 11.2188 22.1028 11.2798 22.0583 11.3251C22.0137 11.3705 21.9532 11.3965 21.8897 11.3976M23.9133 11.3976H23.1353C23.0713 11.3965 23.0103 11.3706 22.9651 11.3254C22.9199 11.2802 22.894 11.2192 22.8929 11.1553V6.99755C22.8929 6.93328 22.9185 6.87165 22.9639 6.8262C23.0094 6.78076 23.071 6.75523 23.1353 6.75523H23.9133C23.9775 6.75523 24.0392 6.78076 24.0846 6.8262C24.13 6.87165 24.1556 6.93328 24.1556 6.99755V11.1553C24.1545 11.2192 24.1286 11.2802 24.0834 11.3254C24.0382 11.3706 23.9772 11.3965 23.9133 11.3976ZM19.8533 11.3976H19.0753C19.0114 11.3965 18.9504 11.3706 18.9052 11.3254C18.86 11.2802 18.8341 11.2192 18.833 11.1553V6.99755C18.833 6.93328 18.8585 6.87165 18.904 6.8262C18.9494 6.78076 19.0111 6.75523 19.0753 6.75523H19.8533C19.8849 6.75522 19.9162 6.76152 19.9454 6.77375C19.9746 6.78598 20.001 6.80389 20.0232 6.82645C20.0453 6.84901 20.0628 6.87576 20.0745 6.90514C20.0862 6.93451 20.0919 6.96593 20.0914 6.99755V11.1553C20.0914 11.2188 20.0664 11.2798 20.0219 11.3251C19.9774 11.3705 19.9168 11.3965 19.8533 11.3976ZM29.2401 34.6094V33.6614C29.2401 33.6348 29.2454 33.6084 29.2557 33.5839C29.266 33.5594 29.2811 33.5372 29.3001 33.5185C29.3191 33.4999 29.3416 33.4853 29.3663 33.4755C29.3911 33.4657 29.4175 33.461 29.4441 33.4615H31.3317C31.3847 33.4615 31.4355 33.4826 31.473 33.5201C31.5104 33.5575 31.5315 33.6084 31.5315 33.6614V34.5414L29.2401 34.6094ZM31.2934 37.9764H29.4781C29.4465 37.9764 29.4152 37.9701 29.386 37.9579C29.3569 37.9456 29.3304 37.9277 29.3083 37.9051C29.2861 37.8826 29.2687 37.8558 29.2569 37.8265C29.2452 37.7971 29.2395 37.7657 29.2401 37.7341V35.9273C29.2395 35.8957 29.2452 35.8642 29.2569 35.8349C29.2687 35.8055 29.2861 35.7787 29.3083 35.7562C29.3304 35.7336 29.3569 35.7157 29.386 35.7035C29.4152 35.6912 29.4465 35.6849 29.4781 35.685H31.2934C31.325 35.6849 31.3563 35.6912 31.3855 35.7035C31.4147 35.7157 31.4411 35.7336 31.4633 35.7562C31.4854 35.7787 31.5029 35.8055 31.5146 35.8349C31.5263 35.8642 31.532 35.8957 31.5315 35.9273V37.7341C31.532 37.7657 31.5263 37.7971 31.5146 37.8265C31.5029 37.8558 31.4854 37.8826 31.4633 37.9051C31.4411 37.9277 31.4147 37.9456 31.3855 37.9579C31.3563 37.9701 31.325 37.9764 31.2934 37.9764ZM36.565 34.6094V33.6614C36.565 33.6084 36.586 33.5575 36.6235 33.5201C36.6609 33.4826 36.7118 33.4615 36.7648 33.4615H38.6566C38.7096 33.4615 38.7604 33.4826 38.7978 33.5201C38.8353 33.5575 38.8564 33.6084 38.8564 33.6614V34.5414L36.565 34.6094ZM38.6311 37.9764H36.803C36.7388 37.9764 36.6771 37.9508 36.6317 37.9054C36.5862 37.86 36.5607 37.7983 36.5607 37.7341V35.9273C36.5607 35.863 36.5862 35.8014 36.6317 35.7559C36.6771 35.7105 36.7388 35.685 36.803 35.685H38.6311C38.6953 35.685 38.757 35.7105 38.8024 35.7559C38.8478 35.8014 38.8734 35.863 38.8734 35.9273V37.7341C38.8734 37.7983 38.8478 37.86 38.8024 37.9054C38.757 37.9508 38.6953 37.9764 38.6311 37.9764ZM11.4954 34.5371V33.6571C11.4954 33.6041 11.5164 33.5533 11.5539 33.5158C11.5914 33.4784 11.6422 33.4573 11.6952 33.4573H13.587C13.64 33.4573 13.6908 33.4784 13.7283 33.5158C13.7657 33.5533 13.7868 33.6041 13.7868 33.6571V34.6051L11.4954 34.5371ZM13.5487 37.9764H11.7207C11.6887 37.9769 11.6569 37.9711 11.6273 37.9591C11.5976 37.9471 11.5707 37.9293 11.548 37.9067C11.5254 37.8841 11.5076 37.8571 11.4956 37.8275C11.4837 37.7978 11.4778 37.766 11.4784 37.7341V35.923C11.4784 35.8914 11.4847 35.8601 11.4969 35.8309C11.5091 35.8018 11.527 35.7753 11.5496 35.7532C11.5721 35.731 11.5989 35.7135 11.6283 35.7018C11.6576 35.6901 11.6891 35.6844 11.7207 35.685H13.5487C13.6119 35.685 13.6724 35.71 13.7171 35.7547C13.7617 35.7993 13.7868 35.8599 13.7868 35.923V37.7341C13.7873 37.7657 13.7816 37.7971 13.7699 37.8265C13.7582 37.8558 13.7407 37.8826 13.7186 37.9051C13.6964 37.9277 13.67 37.9456 13.6408 37.9579C13.6117 37.9701 13.5803 37.9764 13.5487 37.9764ZM4.15346 34.5371V33.6571C4.15346 33.6041 4.17451 33.5533 4.21199 33.5158C4.24946 33.4784 4.30028 33.4573 4.35327 33.4573H6.24508C6.29807 33.4573 6.34889 33.4784 6.38636 33.5158C6.42384 33.5533 6.44488 33.6041 6.44488 33.6571V34.6051L4.15346 34.5371ZM6.20681 37.9764H4.39579C4.3638 37.9769 4.33203 37.9711 4.30237 37.9591C4.27271 37.9471 4.24577 37.9293 4.22316 37.9067C4.20054 37.8841 4.18271 37.8571 4.17074 37.8275C4.15876 37.7978 4.15288 37.766 4.15346 37.7341V35.923C4.15346 35.8914 4.15975 35.8601 4.17198 35.8309C4.18421 35.8018 4.20213 35.7753 4.22469 35.7532C4.24725 35.731 4.274 35.7135 4.30337 35.7018C4.33275 35.6901 4.36417 35.6844 4.39579 35.685H6.20681C6.26995 35.685 6.33051 35.71 6.37515 35.7547C6.4198 35.7993 6.44488 35.8599 6.44488 35.923V37.7341C6.44545 37.7657 6.43971 37.7971 6.428 37.8265C6.41629 37.8558 6.39884 37.8826 6.37668 37.9051C6.35452 37.9277 6.32808 37.9456 6.29891 37.9579C6.26975 37.9701 6.23844 37.9764 6.20681 37.9764ZM20.3507 34.5371V33.6571C20.3507 33.6041 20.3718 33.5533 20.4092 33.5158C20.4467 33.4784 20.4975 33.4573 20.5505 33.4573H22.4423C22.4953 33.4573 22.5461 33.4784 22.5836 33.5158C22.6211 33.5533 22.6421 33.6041 22.6421 33.6571V34.6051L20.3507 34.5371ZM22.4041 37.9764H20.5888C20.5571 37.9764 20.5258 37.9701 20.4967 37.9579C20.4675 37.9456 20.4411 37.9277 20.4189 37.9051C20.3968 37.8826 20.3793 37.8558 20.3676 37.8265C20.3559 37.7971 20.3501 37.7657 20.3507 37.7341V35.923C20.3507 35.8599 20.3758 35.7993 20.4204 35.7547C20.4651 35.71 20.5256 35.685 20.5888 35.685H22.4041C22.4672 35.685 22.5278 35.71 22.5724 35.7547C22.617 35.7993 22.6421 35.8599 22.6421 35.923V37.7341C22.6427 37.7657 22.637 37.7971 22.6252 37.8265C22.6135 37.8558 22.5961 37.8826 22.5739 37.9051C22.5518 37.9277 22.5253 37.9456 22.4962 37.9579C22.467 37.9701 22.4357 37.9764 22.4041 37.9764ZM42.776 34.9665H0.242318C0.211054 34.9665 0.1801 34.9603 0.151216 34.9484C0.122332 34.9364 0.0960832 34.9189 0.0739764 34.8968C0.0518696 34.8747 0.0343374 34.8484 0.0223733 34.8195C0.0104091 34.7906 0.00424891 34.7597 0.00424891 34.7284V34.5839C0.00424891 34.5207 0.0293297 34.4602 0.0739764 34.4155C0.118623 34.3709 0.179178 34.3458 0.242318 34.3458H42.7845C42.8477 34.3458 42.9082 34.3709 42.9529 34.4155C42.9975 34.4602 43.0226 34.5207 43.0226 34.5839V34.7284C43.0226 34.7597 43.0164 34.7906 43.0045 34.8195C42.9925 34.8484 42.975 34.8747 42.9529 34.8968C42.9308 34.9189 42.9045 34.9364 42.8756 34.9484C42.8468 34.9603 42.8158 34.9665 42.7845 34.9665M42.7845 40H0.238069C0.174929 40 0.114374 39.9749 0.0697275 39.9302C0.0250808 39.8856 0 39.825 0 39.7619V38.7543C0 38.6912 0.0250808 38.6307 0.0697275 38.586C0.114374 38.5414 0.174929 38.5163 0.238069 38.5163H42.7803C42.8119 38.5157 42.8433 38.5215 42.8727 38.5332C42.9021 38.5449 42.9288 38.5623 42.9514 38.5845C42.9739 38.6067 42.9918 38.6331 43.0041 38.6623C43.0163 38.6914 43.0226 38.7227 43.0226 38.7543V39.7619C43.0226 39.7935 43.0163 39.8248 43.0041 39.854C42.9918 39.8832 42.9739 39.9096 42.9514 39.9318C42.9288 39.9539 42.9021 39.9714 42.8727 39.9831C42.8433 39.9948 42.8119 40.0005 42.7803 40" fill="white"></path>
  </g>
</svg>
